<svg xmlns="http://www.w3.org/2000/svg" viewBox="0 0 1726 560" width="863" height="280" role="img" aria-labelledby="t">
  <title id="t">NoSpy logo with ghost in place of the O</title>
  <rect x="7" y="7" width="1712" height="546" fill="#000" stroke="#8528b5" stroke-width="14"/>
  <g transform="translate(-227,-383)">
    <g fill="none" stroke-width="10" stroke-linecap="round" stroke-linejoin="round">
      <path transform="translate(-19,0)" stroke="#555" d="M345 515V810M345 515L537 763M572 515V810"/>
      <path transform="translate(0,0)" stroke="#8528b5" d="M345 515V810M345 515L537 763M572 515V810"/>
      <path transform="translate(30,0)" stroke="#555" d="M1228 514H1140Q1050 514 1050 596Q1050 677 1140 677H1170M1105 646H1155Q1243 646 1243 730Q1243 812 1155 812H1048"/>
      <path transform="translate(49,0)" stroke="#8528b5" d="M1228 514H1140Q1050 514 1050 596Q1050 677 1140 677H1170M1105 646H1155Q1243 646 1243 730Q1243 812 1155 812H1048"/>
      <path transform="translate(60,0)" stroke="#555" d="M1292 810V514H1415Q1503 514 1503 585Q1503 660 1415 660H1292M1540 514L1655 638L1775 514M1657 638V812"/>
      <path transform="translate(79,0)" stroke="#8528b5" d="M1292 810V514H1415Q1503 514 1503 585Q1503 660 1415 660H1292M1540 514L1655 638L1775 514M1657 638V812"/>
    </g>
    <g transform="translate(658,513) scale(0.95)" shape-rendering="crispEdges">
      <rect x="96" y="0" width="16" height="16" fill="#2a0f3d"/>
      <rect x="112" y="0" width="16" height="16" fill="#2a0f3d"/>
      <rect x="128" y="0" width="16" height="16" fill="#2a0f3d"/>
      <rect x="144" y="0" width="16" height="16" fill="#2a0f3d"/>
      <rect x="160" y="0" width="16" height="16" fill="#2a0f3d"/>
      <rect x="176" y="0" width="16" height="16" fill="#2a0f3d"/>
      <rect x="64" y="16" width="16" height="16" fill="#2a0f3d"/>
      <rect x="80" y="16" width="16" height="16" fill="#2a0f3d"/>
      <rect x="96" y="16" width="16" height="16" fill="#0b0b0f"/>
      <rect x="112" y="16" width="16" height="16" fill="#0b0b0f"/>
      <rect x="128" y="16" width="16" height="16" fill="#0b0b0f"/>
      <rect x="144" y="16" width="16" height="16" fill="#0b0b0f"/>
      <rect x="160" y="16" width="16" height="16" fill="#0b0b0f"/>
      <rect x="176" y="16" width="16" height="16" fill="#0b0b0f"/>
      <rect x="192" y="16" width="16" height="16" fill="#2a0f3d"/>
      <rect x="208" y="16" width="16" height="16" fill="#2a0f3d"/>
      <rect x="48" y="32" width="16" height="16" fill="#2a0f3d"/>
      <rect x="64" y="32" width="16" height="16" fill="#0b0b0f"/>
      <rect x="80" y="32" width="16" height="16" fill="#0b0b0f"/>
      <rect x="96" y="32" width="16" height="16" fill="#0b0b0f"/>
      <rect x="112" y="32" width="16" height="16" fill="#0b0b0f"/>
      <rect x="128" y="32" width="16" height="16" fill="#0b0b0f"/>
      <rect x="144" y="32" width="16" height="16" fill="#0b0b0f"/>
      <rect x="160" y="32" width="16" height="16" fill="#0b0b0f"/>
      <rect x="176" y="32" width="16" height="16" fill="#0b0b0f"/>
      <rect x="192" y="32" width="16" height="16" fill="#0b0b0f"/>
      <rect x="208" y="32" width="16" height="16" fill="#0b0b0f"/>
      <rect x="224" y="32" width="16" height="16" fill="#2a0f3d"/>
      <rect x="32" y="48" width="16" height="16" fill="#2a0f3d"/>
      <rect x="48" y="48" width="16" height="16" fill="#0b0b0f"/>
      <rect x="64" y="48" width="16" height="16" fill="#0b0b0f"/>
      <rect x="80" y="48" width="16" height="16" fill="#0b0b0f"/>
      <rect x="96" y="48" width="16" height="16" fill="#0b0b0f"/>
      <rect x="112" y="48" width="16" height="16" fill="#0b0b0f"/>
      <rect x="128" y="48" width="16" height="16" fill="#0b0b0f"/>
      <rect x="144" y="48" width="16" height="16" fill="#0b0b0f"/>
      <rect x="160" y="48" width="16" height="16" fill="#0b0b0f"/>
      <rect x="176" y="48" width="16" height="16" fill="#0b0b0f"/>
      <rect x="192" y="48" width="16" height="16" fill="#0b0b0f"/>
      <rect x="208" y="48" width="16" height="16" fill="#0b0b0f"/>
      <rect x="224" y="48" width="16" height="16" fill="#0b0b0f"/>
      <rect x="240" y="48" width="16" height="16" fill="#2a0f3d"/>
      <rect x="16" y="64" width="16" height="16" fill="#2a0f3d"/>
      <rect x="32" y="64" width="16" height="16" fill="#0b0b0f"/>
      <rect x="48" y="64" width="16" height="16" fill="#0b0b0f"/>
      <rect x="64" y="64" width="16" height="16" fill="#0b0b0f"/>
      <rect x="80" y="64" width="16" height="16" fill="#0b0b0f"/>
      <rect x="96" y="64" width="16" height="16" fill="#0b0b0f"/>
      <rect x="112" y="64" width="16" height="16" fill="#0b0b0f"/>
      <rect x="128" y="64" width="16" height="16" fill="#0b0b0f"/>
      <rect x="144" y="64" width="16" height="16" fill="#0b0b0f"/>
      <rect x="160" y="64" width="16" height="16" fill="#0b0b0f"/>
      <rect x="176" y="64" width="16" height="16" fill="#0b0b0f"/>
      <rect x="192" y="64" width="16" height="16" fill="#0b0b0f"/>
      <rect x="208" y="64" width="16" height="16" fill="#0b0b0f"/>
      <rect x="224" y="64" width="16" height="16" fill="#0b0b0f"/>
      <rect x="240" y="64" width="16" height="16" fill="#0b0b0f"/>
      <rect x="256" y="64" width="16" height="16" fill="#2a0f3d"/>
      <rect x="16" y="80" width="16" height="16" fill="#2a0f3d"/>
      <rect x="32" y="80" width="16" height="16" fill="#0b0b0f"/>
      <rect x="48" y="80" width="16" height="16" fill="#0b0b0f"/>
      <rect x="64" y="80" width="16" height="16" fill="#0b0b0f"/>
      <rect x="80" y="80" width="16" height="16" fill="#0b0b0f"/>
      <rect x="96" y="80" width="16" height="16" fill="#0b0b0f"/>
      <rect x="112" y="80" width="16" height="16" fill="#0b0b0f"/>
      <rect x="128" y="80" width="16" height="16" fill="#0b0b0f"/>
      <rect x="144" y="80" width="16" height="16" fill="#0b0b0f"/>
      <rect x="160" y="80" width="16" height="16" fill="#0b0b0f"/>
      <rect x="176" y="80" width="16" height="16" fill="#0b0b0f"/>
      <rect x="192" y="80" width="16" height="16" fill="#0b0b0f"/>
      <rect x="208" y="80" width="16" height="16" fill="#0b0b0f"/>
      <rect x="224" y="80" width="16" height="16" fill="#0b0b0f"/>
      <rect x="240" y="80" width="16" height="16" fill="#0b0b0f"/>
      <rect x="256" y="80" width="16" height="16" fill="#2a0f3d"/>
      <rect x="0" y="96" width="16" height="16" fill="#2a0f3d"/>
      <rect x="16" y="96" width="16" height="16" fill="#0b0b0f"/>
      <rect x="32" y="96" width="16" height="16" fill="#0b0b0f"/>
      <rect x="48" y="96" width="16" height="16" fill="#0b0b0f"/>
      <rect x="64" y="96" width="16" height="16" fill="#b06ade"/>
      <rect x="80" y="96" width="16" height="16" fill="#0b0b0f"/>
      <rect x="96" y="96" width="16" height="16" fill="#0b0b0f"/>
      <rect x="112" y="96" width="16" height="16" fill="#0b0b0f"/>
      <rect x="128" y="96" width="16" height="16" fill="#0b0b0f"/>
      <rect x="144" y="96" width="16" height="16" fill="#0b0b0f"/>
      <rect x="160" y="96" width="16" height="16" fill="#0b0b0f"/>
      <rect x="176" y="96" width="16" height="16" fill="#0b0b0f"/>
      <rect x="192" y="96" width="16" height="16" fill="#0b0b0f"/>
      <rect x="208" y="96" width="16" height="16" fill="#b06ade"/>
      <rect x="224" y="96" width="16" height="16" fill="#0b0b0f"/>
      <rect x="240" y="96" width="16" height="16" fill="#0b0b0f"/>
      <rect x="256" y="96" width="16" height="16" fill="#0b0b0f"/>
      <rect x="272" y="96" width="16" height="16" fill="#2a0f3d"/>
      <rect x="0" y="112" width="16" height="16" fill="#2a0f3d"/>
      <rect x="16" y="112" width="16" height="16" fill="#0b0b0f"/>
      <rect x="32" y="112" width="16" height="16" fill="#0b0b0f"/>
      <rect x="48" y="112" width="16" height="16" fill="#0b0b0f"/>
      <rect x="64" y="112" width="16" height="16" fill="#b06ade"/>
      <rect x="80" y="112" width="16" height="16" fill="#b06ade"/>
      <rect x="96" y="112" width="16" height="16" fill="#0b0b0f"/>
      <rect x="112" y="112" width="16" height="16" fill="#0b0b0f"/>
      <rect x="128" y="112" width="16" height="16" fill="#0b0b0f"/>
      <rect x="144" y="112" width="16" height="16" fill="#0b0b0f"/>
      <rect x="160" y="112" width="16" height="16" fill="#0b0b0f"/>
      <rect x="176" y="112" width="16" height="16" fill="#0b0b0f"/>
      <rect x="192" y="112" width="16" height="16" fill="#b06ade"/>
      <rect x="208" y="112" width="16" height="16" fill="#b06ade"/>
      <rect x="224" y="112" width="16" height="16" fill="#0b0b0f"/>
      <rect x="240" y="112" width="16" height="16" fill="#0b0b0f"/>
      <rect x="256" y="112" width="16" height="16" fill="#0b0b0f"/>
      <rect x="272" y="112" width="16" height="16" fill="#2a0f3d"/>
      <rect x="0" y="128" width="16" height="16" fill="#2a0f3d"/>
      <rect x="16" y="128" width="16" height="16" fill="#0b0b0f"/>
      <rect x="32" y="128" width="16" height="16" fill="#0b0b0f"/>
      <rect x="48" y="128" width="16" height="16" fill="#0b0b0f"/>
      <rect x="64" y="128" width="16" height="16" fill="#b06ade"/>
      <rect x="80" y="128" width="16" height="16" fill="#b06ade"/>
      <rect x="96" y="128" width="16" height="16" fill="#0b0b0f"/>
      <rect x="112" y="128" width="16" height="16" fill="#0b0b0f"/>
      <rect x="128" y="128" width="16" height="16" fill="#0b0b0f"/>
      <rect x="144" y="128" width="16" height="16" fill="#0b0b0f"/>
      <rect x="160" y="128" width="16" height="16" fill="#0b0b0f"/>
      <rect x="176" y="128" width="16" height="16" fill="#0b0b0f"/>
      <rect x="192" y="128" width="16" height="16" fill="#b06ade"/>
      <rect x="208" y="128" width="16" height="16" fill="#b06ade"/>
      <rect x="224" y="128" width="16" height="16" fill="#0b0b0f"/>
      <rect x="240" y="128" width="16" height="16" fill="#0b0b0f"/>
      <rect x="256" y="128" width="16" height="16" fill="#0b0b0f"/>
      <rect x="272" y="128" width="16" height="16" fill="#2a0f3d"/>
      <rect x="0" y="144" width="16" height="16" fill="#2a0f3d"/>
      <rect x="16" y="144" width="16" height="16" fill="#0b0b0f"/>
      <rect x="32" y="144" width="16" height="16" fill="#0b0b0f"/>
      <rect x="48" y="144" width="16" height="16" fill="#0b0b0f"/>
      <rect x="64" y="144" width="16" height="16" fill="#b06ade"/>
      <rect x="80" y="144" width="16" height="16" fill="#b06ade"/>
      <rect x="96" y="144" width="16" height="16" fill="#0b0b0f"/>
      <rect x="112" y="144" width="16" height="16" fill="#0b0b0f"/>
      <rect x="128" y="144" width="16" height="16" fill="#0b0b0f"/>
      <rect x="144" y="144" width="16" height="16" fill="#0b0b0f"/>
      <rect x="160" y="144" width="16" height="16" fill="#0b0b0f"/>
      <rect x="176" y="144" width="16" height="16" fill="#0b0b0f"/>
      <rect x="192" y="144" width="16" height="16" fill="#b06ade"/>
      <rect x="208" y="144" width="16" height="16" fill="#b06ade"/>
      <rect x="224" y="144" width="16" height="16" fill="#0b0b0f"/>
      <rect x="240" y="144" width="16" height="16" fill="#0b0b0f"/>
      <rect x="256" y="144" width="16" height="16" fill="#0b0b0f"/>
      <rect x="272" y="144" width="16" height="16" fill="#2a0f3d"/>
      <rect x="0" y="160" width="16" height="16" fill="#2a0f3d"/>
      <rect x="16" y="160" width="16" height="16" fill="#0b0b0f"/>
      <rect x="32" y="160" width="16" height="16" fill="#0b0b0f"/>
      <rect x="48" y="160" width="16" height="16" fill="#0b0b0f"/>
      <rect x="64" y="160" width="16" height="16" fill="#0b0b0f"/>
      <rect x="80" y="160" width="16" height="16" fill="#b06ade"/>
      <rect x="96" y="160" width="16" height="16" fill="#0b0b0f"/>
      <rect x="112" y="160" width="16" height="16" fill="#0b0b0f"/>
      <rect x="128" y="160" width="16" height="16" fill="#0b0b0f"/>
      <rect x="144" y="160" width="16" height="16" fill="#0b0b0f"/>
      <rect x="160" y="160" width="16" height="16" fill="#0b0b0f"/>
      <rect x="176" y="160" width="16" height="16" fill="#0b0b0f"/>
      <rect x="192" y="160" width="16" height="16" fill="#b06ade"/>
      <rect x="208" y="160" width="16" height="16" fill="#0b0b0f"/>
      <rect x="224" y="160" width="16" height="16" fill="#0b0b0f"/>
      <rect x="240" y="160" width="16" height="16" fill="#0b0b0f"/>
      <rect x="256" y="160" width="16" height="16" fill="#0b0b0f"/>
      <rect x="272" y="160" width="16" height="16" fill="#2a0f3d"/>
      <rect x="0" y="176" width="16" height="16" fill="#2a0f3d"/>
      <rect x="16" y="176" width="16" height="16" fill="#0b0b0f"/>
      <rect x="32" y="176" width="16" height="16" fill="#0b0b0f"/>
      <rect x="48" y="176" width="16" height="16" fill="#0b0b0f"/>
      <rect x="64" y="176" width="16" height="16" fill="#0b0b0f"/>
      <rect x="80" y="176" width="16" height="16" fill="#0b0b0f"/>
      <rect x="96" y="176" width="16" height="16" fill="#0b0b0f"/>
      <rect x="112" y="176" width="16" height="16" fill="#0b0b0f"/>
      <rect x="128" y="176" width="16" height="16" fill="#0b0b0f"/>
      <rect x="144" y="176" width="16" height="16" fill="#0b0b0f"/>
      <rect x="160" y="176" width="16" height="16" fill="#0b0b0f"/>
      <rect x="176" y="176" width="16" height="16" fill="#0b0b0f"/>
      <rect x="192" y="176" width="16" height="16" fill="#0b0b0f"/>
      <rect x="208" y="176" width="16" height="16" fill="#0b0b0f"/>
      <rect x="224" y="176" width="16" height="16" fill="#0b0b0f"/>
      <rect x="240" y="176" width="16" height="16" fill="#0b0b0f"/>
      <rect x="256" y="176" width="16" height="16" fill="#0b0b0f"/>
      <rect x="272" y="176" width="16" height="16" fill="#2a0f3d"/>
      <rect x="0" y="192" width="16" height="16" fill="#2a0f3d"/>
      <rect x="16" y="192" width="16" height="16" fill="#0b0b0f"/>
      <rect x="32" y="192" width="16" height="16" fill="#8528b5"/>
      <rect x="48" y="192" width="16" height="16" fill="#0b0b0f"/>
      <rect x="64" y="192" width="16" height="16" fill="#0b0b0f"/>
      <rect x="80" y="192" width="16" height="16" fill="#0b0b0f"/>
      <rect x="96" y="192" width="16" height="16" fill="#0b0b0f"/>
      <rect x="112" y="192" width="16" height="16" fill="#0b0b0f"/>
      <rect x="128" y="192" width="16" height="16" fill="#0b0b0f"/>
      <rect x="144" y="192" width="16" height="16" fill="#0b0b0f"/>
      <rect x="160" y="192" width="16" height="16" fill="#0b0b0f"/>
      <rect x="176" y="192" width="16" height="16" fill="#0b0b0f"/>
      <rect x="192" y="192" width="16" height="16" fill="#0b0b0f"/>
      <rect x="208" y="192" width="16" height="16" fill="#0b0b0f"/>
      <rect x="224" y="192" width="16" height="16" fill="#0b0b0f"/>
      <rect x="240" y="192" width="16" height="16" fill="#8528b5"/>
      <rect x="256" y="192" width="16" height="16" fill="#0b0b0f"/>
      <rect x="272" y="192" width="16" height="16" fill="#2a0f3d"/>
      <rect x="0" y="208" width="16" height="16" fill="#2a0f3d"/>
      <rect x="16" y="208" width="16" height="16" fill="#0b0b0f"/>
      <rect x="32" y="208" width="16" height="16" fill="#8528b5"/>
      <rect x="48" y="208" width="16" height="16" fill="#8528b5"/>
      <rect x="64" y="208" width="16" height="16" fill="#0b0b0f"/>
      <rect x="80" y="208" width="16" height="16" fill="#8528b5"/>
      <rect x="96" y="208" width="16" height="16" fill="#0b0b0f"/>
      <rect x="112" y="208" width="16" height="16" fill="#8528b5"/>
      <rect x="128" y="208" width="16" height="16" fill="#0b0b0f"/>
      <rect x="144" y="208" width="16" height="16" fill="#0b0b0f"/>
      <rect x="160" y="208" width="16" height="16" fill="#8528b5"/>
      <rect x="176" y="208" width="16" height="16" fill="#0b0b0f"/>
      <rect x="192" y="208" width="16" height="16" fill="#8528b5"/>
      <rect x="208" y="208" width="16" height="16" fill="#0b0b0f"/>
      <rect x="224" y="208" width="16" height="16" fill="#8528b5"/>
      <rect x="240" y="208" width="16" height="16" fill="#8528b5"/>
      <rect x="256" y="208" width="16" height="16" fill="#0b0b0f"/>
      <rect x="272" y="208" width="16" height="16" fill="#2a0f3d"/>
      <rect x="0" y="224" width="16" height="16" fill="#2a0f3d"/>
      <rect x="16" y="224" width="16" height="16" fill="#0b0b0f"/>
      <rect x="32" y="224" width="16" height="16" fill="#8528b5"/>
      <rect x="48" y="224" width="16" height="16" fill="#8528b5"/>
      <rect x="64" y="224" width="16" height="16" fill="#8528b5"/>
      <rect x="80" y="224" width="16" height="16" fill="#8528b5"/>
      <rect x="96" y="224" width="16" height="16" fill="#8528b5"/>
      <rect x="112" y="224" width="16" height="16" fill="#8528b5"/>
      <rect x="128" y="224" width="16" height="16" fill="#8528b5"/>
      <rect x="144" y="224" width="16" height="16" fill="#8528b5"/>
      <rect x="160" y="224" width="16" height="16" fill="#8528b5"/>
      <rect x="176" y="224" width="16" height="16" fill="#8528b5"/>
      <rect x="192" y="224" width="16" height="16" fill="#8528b5"/>
      <rect x="208" y="224" width="16" height="16" fill="#8528b5"/>
      <rect x="224" y="224" width="16" height="16" fill="#8528b5"/>
      <rect x="240" y="224" width="16" height="16" fill="#8528b5"/>
      <rect x="256" y="224" width="16" height="16" fill="#0b0b0f"/>
      <rect x="272" y="224" width="16" height="16" fill="#2a0f3d"/>
      <rect x="0" y="240" width="16" height="16" fill="#2a0f3d"/>
      <rect x="16" y="240" width="16" height="16" fill="#0b0b0f"/>
      <rect x="32" y="240" width="16" height="16" fill="#0b0b0f"/>
      <rect x="48" y="240" width="16" height="16" fill="#0b0b0f"/>
      <rect x="64" y="240" width="16" height="16" fill="#8528b5"/>
      <rect x="80" y="240" width="16" height="16" fill="#0b0b0f"/>
      <rect x="96" y="240" width="16" height="16" fill="#8528b5"/>
      <rect x="112" y="240" width="16" height="16" fill="#0b0b0f"/>
      <rect x="128" y="240" width="16" height="16" fill="#8528b5"/>
      <rect x="144" y="240" width="16" height="16" fill="#8528b5"/>
      <rect x="160" y="240" width="16" height="16" fill="#0b0b0f"/>
      <rect x="176" y="240" width="16" height="16" fill="#8528b5"/>
      <rect x="192" y="240" width="16" height="16" fill="#0b0b0f"/>
      <rect x="208" y="240" width="16" height="16" fill="#8528b5"/>
      <rect x="224" y="240" width="16" height="16" fill="#0b0b0f"/>
      <rect x="240" y="240" width="16" height="16" fill="#0b0b0f"/>
      <rect x="256" y="240" width="16" height="16" fill="#0b0b0f"/>
      <rect x="272" y="240" width="16" height="16" fill="#2a0f3d"/>
      <rect x="0" y="256" width="16" height="16" fill="#2a0f3d"/>
      <rect x="16" y="256" width="16" height="16" fill="#0b0b0f"/>
      <rect x="32" y="256" width="16" height="16" fill="#0b0b0f"/>
      <rect x="48" y="256" width="16" height="16" fill="#0b0b0f"/>
      <rect x="64" y="256" width="16" height="16" fill="#0b0b0f"/>
      <rect x="80" y="256" width="16" height="16" fill="#0b0b0f"/>
      <rect x="96" y="256" width="16" height="16" fill="#0b0b0f"/>
      <rect x="112" y="256" width="16" height="16" fill="#0b0b0f"/>
      <rect x="128" y="256" width="16" height="16" fill="#0b0b0f"/>
      <rect x="144" y="256" width="16" height="16" fill="#0b0b0f"/>
      <rect x="160" y="256" width="16" height="16" fill="#0b0b0f"/>
      <rect x="176" y="256" width="16" height="16" fill="#0b0b0f"/>
      <rect x="192" y="256" width="16" height="16" fill="#0b0b0f"/>
      <rect x="208" y="256" width="16" height="16" fill="#0b0b0f"/>
      <rect x="224" y="256" width="16" height="16" fill="#0b0b0f"/>
      <rect x="240" y="256" width="16" height="16" fill="#0b0b0f"/>
      <rect x="256" y="256" width="16" height="16" fill="#0b0b0f"/>
      <rect x="272" y="256" width="16" height="16" fill="#2a0f3d"/>
      <rect x="0" y="272" width="16" height="16" fill="#2a0f3d"/>
      <rect x="16" y="272" width="16" height="16" fill="#0b0b0f"/>
      <rect x="32" y="272" width="16" height="16" fill="#0b0b0f"/>
      <rect x="48" y="272" width="16" height="16" fill="#0b0b0f"/>
      <rect x="64" y="272" width="16" height="16" fill="#0b0b0f"/>
      <rect x="80" y="272" width="16" height="16" fill="#2a0f3d"/>
      <rect x="96" y="272" width="16" height="16" fill="#2a0f3d"/>
      <rect x="112" y="272" width="16" height="16" fill="#0b0b0f"/>
      <rect x="128" y="272" width="16" height="16" fill="#0b0b0f"/>
      <rect x="144" y="272" width="16" height="16" fill="#0b0b0f"/>
      <rect x="160" y="272" width="16" height="16" fill="#0b0b0f"/>
      <rect x="176" y="272" width="16" height="16" fill="#2a0f3d"/>
      <rect x="192" y="272" width="16" height="16" fill="#2a0f3d"/>
      <rect x="208" y="272" width="16" height="16" fill="#0b0b0f"/>
      <rect x="224" y="272" width="16" height="16" fill="#0b0b0f"/>
      <rect x="240" y="272" width="16" height="16" fill="#0b0b0f"/>
      <rect x="256" y="272" width="16" height="16" fill="#0b0b0f"/>
      <rect x="272" y="272" width="16" height="16" fill="#2a0f3d"/>
      <rect x="16" y="288" width="16" height="16" fill="#2a0f3d"/>
      <rect x="32" y="288" width="16" height="16" fill="#0b0b0f"/>
      <rect x="48" y="288" width="16" height="16" fill="#0b0b0f"/>
      <rect x="64" y="288" width="16" height="16" fill="#2a0f3d"/>
      <rect x="112" y="288" width="16" height="16" fill="#2a0f3d"/>
      <rect x="128" y="288" width="16" height="16" fill="#0b0b0f"/>
      <rect x="144" y="288" width="16" height="16" fill="#0b0b0f"/>
      <rect x="160" y="288" width="16" height="16" fill="#2a0f3d"/>
      <rect x="208" y="288" width="16" height="16" fill="#2a0f3d"/>
      <rect x="224" y="288" width="16" height="16" fill="#0b0b0f"/>
      <rect x="240" y="288" width="16" height="16" fill="#0b0b0f"/>
      <rect x="256" y="288" width="16" height="16" fill="#2a0f3d"/>
      <rect x="32" y="304" width="16" height="16" fill="#2a0f3d"/>
      <rect x="48" y="304" width="16" height="16" fill="#2a0f3d"/>
      <rect x="128" y="304" width="16" height="16" fill="#2a0f3d"/>
      <rect x="144" y="304" width="16" height="16" fill="#2a0f3d"/>
      <rect x="224" y="304" width="16" height="16" fill="#2a0f3d"/>
      <rect x="240" y="304" width="16" height="16" fill="#2a0f3d"/>
    </g>
  </g>
</svg>
